<svg width="28" height="28" viewBox="0 0 28 28" fill="none" xmlns="http://www.w3.org/2000/svg">
<circle cx="14" cy="14" r="14" fill="#FAF5F2"/>
<path d="M16.7907 11.5499L13.1163 15.735L11.2517 13.8392C11.1241 13.7095 10.9176 13.7095 10.79 13.8392C10.6624 13.9689 10.6624 14.179 10.79 14.3087L12.8988 16.4531C12.96 16.5155 13.0432 16.5502 13.1298 16.5502C13.1328 16.5502 13.1359 16.5502 13.1389 16.55C13.2288 16.5474 13.3135 16.5075 13.3734 16.4393L17.278 11.9921C17.3982 11.8553 17.3864 11.6455 17.2519 11.5233C17.117 11.4014 16.911 11.4133 16.7907 11.5499Z" fill="#F79489"/>
<path d="M23.3232 13.9995C23.3294 13.9744 23.3337 13.9485 23.3337 13.9215C23.3337 13.043 22.4148 12.5891 21.6038 12.1883C21.0281 11.904 20.4332 11.6098 20.2748 11.2391C20.1135 10.8608 20.3412 10.2442 20.561 9.6477C20.8677 8.8165 21.1846 7.95718 20.5998 7.37778C20.0264 6.80915 19.1879 7.00163 18.3767 7.18861C17.809 7.31912 17.2216 7.45381 16.8305 7.2899C16.4488 7.12972 16.1315 6.63316 15.8246 6.15241C15.3794 5.45612 14.8753 4.66667 14.0003 4.66667C13.1238 4.66667 12.6292 5.47326 12.1931 6.18515C11.8905 6.6793 11.5774 7.18992 11.196 7.34988C10.8063 7.51357 10.2127 7.36526 9.63877 7.22222C8.82115 7.01876 7.97582 6.80739 7.40105 7.378C6.82029 7.95367 7.1017 8.81738 7.37424 9.65297C7.56878 10.2491 7.76976 10.8656 7.60712 11.2473C7.44847 11.6195 6.8799 11.911 6.32972 12.1931C5.55043 12.5926 4.66699 13.0454 4.66699 13.9219C4.66699 13.9491 4.67142 13.9753 4.67763 14.0006C4.67142 14.0256 4.66721 14.0515 4.66721 14.0786C4.66721 14.955 5.55065 15.4079 6.33016 15.8073C6.8799 16.0892 7.44869 16.3808 7.60734 16.753C7.76998 17.1346 7.56901 17.7512 7.37446 18.3475C7.10214 19.1828 6.82051 20.0463 7.40105 20.6222C7.97627 21.1928 8.82159 20.9821 9.63899 20.778C10.2131 20.6352 10.8069 20.4873 11.1965 20.6508C11.5776 20.8105 11.8907 21.3212 12.1933 21.8151C12.6296 22.5267 13.124 23.3333 14.0005 23.3333C14.8756 23.3333 15.3799 22.5439 15.8248 21.8476C16.1319 21.3669 16.4492 20.8703 16.8303 20.7101C17.223 20.5458 17.8093 20.6807 18.3767 20.8114C19.1875 20.9979 20.0264 21.1913 20.5994 20.6224C21.1848 20.0428 20.8677 19.1833 20.561 18.3523C20.341 17.7558 20.1135 17.1392 20.2745 16.7613C20.4332 16.3904 21.0281 16.0962 21.6038 15.8119C22.4145 15.4114 23.3337 14.9572 23.3337 14.0788C23.3339 14.0509 23.3294 14.0247 23.3232 13.9995ZM21.3075 15.2211C20.624 15.5588 19.9171 15.9082 19.6625 16.5038C19.3995 17.1212 19.6727 17.8619 19.9369 18.578C20.1824 19.2439 20.4146 19.8734 20.1294 20.1555C19.8172 20.4658 19.1901 20.3214 18.5269 20.1689C17.856 20.0147 17.1622 19.855 16.5715 20.1026C15.9987 20.343 15.6249 20.9283 15.2633 21.4943C14.8758 22.1007 14.5097 22.6735 14.0005 22.6735C13.4978 22.6735 13.1402 22.0899 12.7613 21.4721C12.4038 20.8887 12.034 20.2854 11.4553 20.043C10.8603 19.793 10.1573 19.9683 9.47657 20.1382C8.80962 20.3041 8.17968 20.4618 7.87102 20.1555C7.57787 19.8651 7.78615 19.2261 8.00662 18.5496C8.23862 17.8388 8.47814 17.1036 8.21934 16.4957C7.96718 15.9042 7.29004 15.557 6.63527 15.2211C5.965 14.8777 5.33173 14.5531 5.33173 14.0779C5.33173 14.0507 5.3273 14.0245 5.32109 13.999C5.3273 13.974 5.33151 13.948 5.33151 13.921C5.33151 13.4458 5.96456 13.1212 6.63483 12.7778C7.28982 12.4421 7.96718 12.0949 8.21912 11.503C8.47792 10.8953 8.23839 10.1603 8.0064 9.4493C7.78593 8.77278 7.57743 8.13384 7.87102 7.84315C8.17901 7.53708 8.80896 7.6944 9.47635 7.86073C10.1566 8.03013 10.8597 8.20613 11.4548 7.95608C12.0336 7.71352 12.4034 7.11017 12.7613 6.52681C13.1399 5.90874 13.4976 5.32517 14.0003 5.32517C14.5095 5.32517 14.8756 5.89798 15.2629 6.50462C15.6247 7.07062 15.9985 7.65595 16.5715 7.89654C17.1622 8.14416 17.856 7.98443 18.5269 7.82997C19.1901 7.67748 19.817 7.53313 20.1296 7.84359C20.4144 8.12549 20.1821 8.75476 19.9366 9.42095C19.6725 10.1372 19.3993 10.8779 19.6625 11.4955C19.9167 12.091 20.6237 12.4403 21.3073 12.778C22.0075 13.1239 22.6689 13.4508 22.6689 13.921C22.6689 13.9483 22.6733 13.9744 22.6796 13.9997C22.6733 14.0247 22.6691 14.0507 22.6691 14.0777C22.6691 14.5485 22.0077 14.8753 21.3075 15.2211Z" fill="#F79489"/>
</svg>
