<svg width="28" height="28" viewBox="0 0 28 28" fill="none" xmlns="http://www.w3.org/2000/svg">
<circle cx="14" cy="14" r="14" fill="#FAF5F2"/>
<path d="M20.912 14.8885L16.516 14.2396L14.5503 10.1924C14.5017 10.0919 14.4011 10.0284 14.2906 10.0284C14.1802 10.0284 14.0796 10.0919 14.0309 10.1924L12.0654 14.2396L7.66942 14.8885C7.56053 14.9046 7.46978 14.9823 7.43561 15.0889C7.40143 15.1954 7.43001 15.3125 7.50898 15.3906L10.6895 18.5408L9.93886 22.9892C9.92013 23.0997 9.96492 23.2113 10.0541 23.2772C10.1435 23.3429 10.2617 23.3516 10.3592 23.2996L14.2904 21.1992L18.2223 23.2996C18.2647 23.3221 18.3109 23.3333 18.357 23.3333C18.4171 23.3333 18.4767 23.3143 18.5273 23.2772C18.6165 23.2113 18.6611 23.0997 18.6426 22.9892L17.8911 18.5408L21.0721 15.3906C21.1511 15.3125 21.1794 15.1954 21.1455 15.0889C21.1117 14.9823 21.0209 14.9046 20.912 14.8885ZM17.3783 18.2273C17.31 18.295 17.2789 18.3923 17.2949 18.4878L17.9728 22.5009L14.4256 20.6061C14.341 20.5612 14.2404 20.5612 14.1561 20.6061L10.6094 22.5009L11.2865 18.4878C11.3026 18.3923 11.2715 18.295 11.2031 18.2273L8.334 15.3855L12.2998 14.8001C12.394 14.7861 12.4757 14.7259 12.5178 14.6392L14.291 10.9881L16.0644 14.6392C16.1065 14.7259 16.1882 14.7861 16.2824 14.8001L20.2482 15.3855L17.3783 18.2273Z" fill="#F79489"/>
<path d="M9.2712 11.617C9.37587 11.617 9.47626 11.5557 9.52358 11.4513C9.58871 11.3076 9.5284 11.1366 9.38904 11.0693L6.46316 9.65809C6.32417 9.59123 6.15827 9.6533 6.09314 9.79697C6.028 9.94064 6.08831 10.1117 6.22767 10.1789L9.15355 11.5902C9.1916 11.6084 9.23168 11.617 9.2712 11.617Z" fill="#F79489"/>
<path d="M21.9073 9.79697C21.842 9.6533 21.6761 9.59123 21.5373 9.65809L18.6114 11.0693C18.472 11.1368 18.4119 11.3076 18.4768 11.4513C18.5242 11.5557 18.6246 11.617 18.7292 11.617C18.7688 11.617 18.8088 11.6084 18.8469 11.59L21.7728 10.1788C21.9123 10.1117 21.9725 9.94064 21.9073 9.79697Z" fill="#F79489"/>
<path d="M14.2902 8.63829C14.4505 8.63829 14.5805 8.50716 14.5805 8.34558V4.95936C14.5805 4.79759 14.4505 4.66666 14.2902 4.66666C14.13 4.66666 14 4.79759 14 4.95936V8.34558C14 8.50716 14.13 8.63829 14.2902 8.63829Z" fill="#F79489"/>
</svg>
