<svg width="28" height="28" viewBox="0 0 28 28" fill="none" xmlns="http://www.w3.org/2000/svg">
<circle cx="14" cy="14" r="14" fill="#FAF5F2"/>
<path d="M21.817 16.921L19.0876 15.1186C18.9386 15.0202 18.7369 15.0615 18.6383 15.2121C18.5399 15.3625 18.5816 15.5648 18.7312 15.6634L20.9874 17.1533L11.5261 20.53L4.77781 16.0433L8.63558 14.6325C8.80383 14.571 8.89098 14.3839 8.82935 14.2146C8.76815 14.0455 8.58174 13.958 8.41371 14.0199L3.94587 15.6539C3.78282 15.7134 3.69718 15.891 3.748 16.0559V17.9931C3.748 18.0311 3.75578 18.0669 3.76768 18.1008C3.76984 18.2041 3.82045 18.3045 3.91257 18.3657L11.3029 23.2792C11.358 23.3157 11.4203 23.3333 11.4817 23.3333C11.5459 23.3333 11.608 23.312 11.6621 23.2757L21.8419 19.6429C21.9617 19.6001 22.0397 19.4934 22.054 19.3745C22.072 19.3341 22.0823 19.2895 22.0823 19.2424V17.2411C22.0821 17.0814 21.9677 16.9491 21.817 16.921ZM4.39677 16.5718L11.1576 21.0667V22.4008L4.39677 17.9059V16.5718ZM11.8063 21.1217L21.4336 17.686V19.0966L11.8063 22.5323V21.1217Z" fill="#F79489"/>
<path d="M24.2669 10.0104C24.2669 9.84775 24.1527 9.71278 24.002 9.68419L16.6855 4.72056C16.6796 4.71657 16.6731 4.71436 16.6673 4.71081C16.6573 4.70505 16.6476 4.69929 16.637 4.69463C16.6271 4.6902 16.6171 4.68665 16.6072 4.68333C16.5974 4.68 16.5879 4.6769 16.578 4.67469C16.5672 4.67225 16.5564 4.6707 16.5453 4.66937C16.5356 4.66826 16.5259 4.66693 16.5159 4.66671C16.5047 4.66649 16.4936 4.66715 16.4824 4.66804C16.4727 4.6687 16.4629 4.66959 16.453 4.67114C16.4415 4.67313 16.4303 4.67624 16.419 4.67956C16.4123 4.68156 16.4056 4.68222 16.3989 4.68444L6.13405 8.38749C5.96819 8.44733 5.88039 8.63128 5.93337 8.8017V10.7746C5.93337 10.8122 5.94072 10.8479 5.95218 10.8816C5.9537 10.9878 6.00452 11.0915 6.09729 11.1544L13.4861 16.167C13.5412 16.2043 13.6033 16.2222 13.6649 16.2222C13.7293 16.2222 13.7916 16.2005 13.8457 16.163L24.0254 12.4602C24.1447 12.4168 24.2224 12.3088 24.2373 12.1883C24.2559 12.1464 24.2669 12.1001 24.2669 12.0511V10.0104ZM16.4621 5.36636L23.1742 9.92L13.7092 13.3627L6.96985 8.79062L16.4621 5.36636ZM6.58211 9.32495L13.3407 13.9101V15.2708L6.58211 10.6857V9.32495ZM13.9895 13.9661L23.6182 10.4639V11.9024L13.9895 15.4049V13.9661Z" fill="#F79489"/>
</svg>
