<svg width="29" height="29" viewBox="0 0 29 29" fill="none" xmlns="http://www.w3.org/2000/svg">
<path d="M11.2757 16.7585L6.22 21.8156L7.19043 22.7785L12.2774 17.6901C12.751 17.9988 13.2843 18.2042 13.8426 18.2928V28H15.2043V18.2928C15.7842 18.1934 16.3364 17.9719 16.8243 17.6431L21.8252 22.6454L22.7957 21.6825L17.8026 16.688C18.1792 16.1765 18.4311 15.5841 18.5383 14.958H28V13.5958H18.5148C18.4261 13.0374 18.2208 12.5039 17.9122 12.0302L22.6078 7.33314L21.6452 6.37025L16.9496 11.0673C16.4241 10.6605 15.8054 10.3914 15.1496 10.2844V1H13.8191V10.2609C13.1932 10.3682 12.6009 10.6201 12.0896 10.9968L7.32348 6.22934L6.35304 7.1844L11.1348 11.9675C10.8028 12.4539 10.5811 13.0069 10.4852 13.588H1V14.9501H10.4852C10.5932 15.6096 10.865 16.2314 11.2757 16.7585ZM14.5 11.5605C15.0361 11.5651 15.5588 11.7283 16.0023 12.0296C16.4458 12.3309 16.7902 12.7568 16.9921 13.2535C17.1941 13.7503 17.2445 14.2957 17.1371 14.8211C17.0297 15.3465 16.7692 15.8283 16.3885 16.2059C16.0078 16.5834 15.5239 16.8398 14.9977 16.9427C14.4716 17.0457 13.9268 16.9905 13.4319 16.7842C12.9371 16.578 12.5143 16.2298 12.217 15.7836C11.9196 15.3374 11.7609 14.8131 11.7609 14.2769C11.7609 13.9182 11.8319 13.563 11.9698 13.2319C12.1077 12.9008 12.3099 12.6003 12.5645 12.3477C12.8192 12.0952 13.1214 11.8956 13.4536 11.7605C13.7857 11.6253 14.1414 11.5574 14.5 11.5605Z" fill="#FADCD9" stroke="#FADCD9" stroke-miterlimit="10"/>
</svg>
